<svg version="1.1" id="Layer_1" xmlns="http://www.w3.org/2000/svg" xmlns:xlink="http://www.w3.org/1999/xlink" x="0px" y="0px"
	 width="100%" viewBox="0 0 512 512" enable-background="new 0 0 512 512" xml:space="preserve">
<path fill="#555555" opacity="1.000000" stroke="none" 
	d="
M1.000000,476.000000 
	C1.000000,330.309265 1.000000,184.618515 1.372461,38.518196 
	C2.139776,37.622219 2.712232,37.196930 2.903663,36.640537 
	C8.565530,20.184376 19.485518,8.935603 35.913521,3.044341 
	C36.746292,2.745699 37.310661,1.698610 38.000000,1.000000 
	C183.690750,1.000000 329.381500,1.000000 475.481445,1.372566 
	C476.216583,2.099128 476.479309,2.652030 476.877502,2.778517 
	C493.965851,8.207397 505.055054,19.695330 511.066772,36.398960 
	C511.310730,37.076767 512.337769,37.472729 513.000000,38.000000 
	C513.000000,183.690750 513.000000,329.381500 512.627747,475.481323 
	C511.901031,476.215912 511.351166,476.477325 511.220306,476.876190 
	C505.657806,493.831970 494.392731,505.140778 477.601624,511.068146 
	C476.924805,511.307068 476.527527,512.338074 476.000000,513.000000 
	C330.309265,513.000000 184.618515,513.000000 38.518288,512.627563 
	C37.782665,511.901184 37.520344,511.351959 37.121181,511.221558 
	C20.148630,505.676697 8.877647,494.374176 2.931917,477.603241 
	C2.691707,476.925690 1.661911,476.528046 1.000000,476.000000 
M123.500168,96.299950 
	C114.063362,96.299950 104.626556,96.299950 95.170212,96.299950 
	C95.170212,203.921921 95.170212,310.806915 95.170212,418.070831 
	C96.810890,418.070831 98.113892,418.070892 99.416893,418.070831 
	C148.905731,418.068695 198.397690,418.374786 247.881500,417.875580 
	C262.628571,417.726807 277.581085,416.503784 292.042603,413.714996 
	C328.025238,406.776031 359.242828,390.564697 383.323181,362.242249 
	C406.798035,334.632050 417.598389,302.166016 419.247040,266.350616 
	C420.915192,230.111877 413.747253,195.946075 393.123535,165.669342 
	C362.457489,120.650017 317.805817,99.785248 264.936371,97.391449 
	C218.203629,95.275520 171.318192,96.532295 123.500168,96.299950 
z"/>
<path fill="#000000" opacity="1.000000" stroke="none" 
	d="
M1.000000,476.468658 
	C1.661911,476.528046 2.691707,476.925690 2.931917,477.603241 
	C8.877647,494.374176 20.148630,505.676697 37.121181,511.221558 
	C37.520344,511.351959 37.782665,511.901184 38.054405,512.627563 
	C25.740049,513.000000 13.480098,513.000000 1.000000,513.000000 
	C1.000000,500.980011 1.000000,488.958649 1.000000,476.468658 
z"/>
<path fill="#000000" opacity="1.000000" stroke="none" 
	d="
M476.468689,513.000000 
	C476.527527,512.338074 476.924805,511.307068 477.601624,511.068146 
	C494.392731,505.140778 505.657806,493.831970 511.220306,476.876190 
	C511.351166,476.477325 511.901031,476.215912 512.627747,475.945190 
	C513.000000,488.259949 513.000000,500.519897 513.000000,513.000000 
	C500.980011,513.000000 488.958649,513.000000 476.468689,513.000000 
z"/>
<path fill="#000000" opacity="1.000000" stroke="none" 
	d="
M37.531342,1.000000 
	C37.310661,1.698610 36.746292,2.745699 35.913521,3.044341 
	C19.485518,8.935603 8.565530,20.184376 2.903663,36.640537 
	C2.712232,37.196930 2.139776,37.622219 1.372461,38.054310 
	C1.000000,25.740049 1.000000,13.480098 1.000000,1.000000 
	C13.020000,1.000000 25.041342,1.000000 37.531342,1.000000 
z"/>
<path fill="#000000" opacity="1.000000" stroke="none" 
	d="
M513.000000,37.531342 
	C512.337769,37.472729 511.310730,37.076767 511.066772,36.398960 
	C505.055054,19.695330 493.965851,8.207397 476.877502,2.778517 
	C476.479309,2.652030 476.216583,2.099128 475.945343,1.372566 
	C488.259949,1.000000 500.519897,1.000000 513.000000,1.000000 
	C513.000000,13.020000 513.000000,25.041342 513.000000,37.531342 
z"/>
<path fill="#AAFEFE" opacity="1.000000" stroke="none" 
	d="
M124.000168,96.299957 
	C171.318192,96.532295 218.203629,95.275520 264.936371,97.391449 
	C317.805817,99.785248 362.457489,120.650017 393.123535,165.669342 
	C413.747253,195.946075 420.915192,230.111877 419.247040,266.350616 
	C417.598389,302.166016 406.798035,334.632050 383.323181,362.242249 
	C359.242828,390.564697 328.025238,406.776031 292.042603,413.714996 
	C277.581085,416.503784 262.628571,417.726807 247.881500,417.875580 
	C198.397690,418.374786 148.905731,418.068695 99.416893,418.070831 
	C98.113892,418.070892 96.810890,418.070831 95.170212,418.070831 
	C95.170212,310.806915 95.170212,203.921921 95.170212,96.299950 
	C104.626556,96.299950 114.063362,96.299950 124.000168,96.299957 
M261.862518,156.647736 
	C258.873901,156.434769 255.885666,156.043106 252.896576,156.036377 
	C221.740204,155.966171 190.583679,155.952988 159.427200,155.952393 
	C158.338501,155.952377 157.249786,156.248611 156.403183,156.371597 
	C156.403183,223.943832 156.403183,291.149811 156.403183,358.518097 
	C157.942993,358.589752 159.090485,358.689514 160.237976,358.689697 
	C188.728760,358.693970 217.222565,358.922577 245.708755,358.558807 
	C255.992310,358.427490 266.388184,357.608276 276.505585,355.818481 
	C301.814301,351.341339 323.535400,340.302826 338.583801,318.577332 
	C350.037537,302.041534 354.675537,283.265228 355.471283,263.473053 
	C356.538116,236.938965 351.463715,212.006897 334.156372,190.910583 
	C315.749786,168.474319 290.785370,159.324112 261.862518,156.647736 
z"/>
<path fill="#555555" opacity="1.000000" stroke="none" 
	d="
M262.316223,156.701263 
	C290.785370,159.324112 315.749786,168.474319 334.156372,190.910583 
	C351.463715,212.006897 356.538116,236.938965 355.471283,263.473053 
	C354.675537,283.265228 350.037537,302.041534 338.583801,318.577332 
	C323.535400,340.302826 301.814301,351.341339 276.505585,355.818481 
	C266.388184,357.608276 255.992310,358.427490 245.708755,358.558807 
	C217.222565,358.922577 188.728760,358.693970 160.237976,358.689697 
	C159.090485,358.689514 157.942993,358.589752 156.403183,358.518097 
	C156.403183,291.149811 156.403183,223.943832 156.403183,156.371597 
	C157.249786,156.248611 158.338501,155.952377 159.427200,155.952393 
	C190.583679,155.952988 221.740204,155.966171 252.896576,156.036377 
	C255.885666,156.043106 258.873901,156.434769 262.316223,156.701263 
z"/>
</svg>